<svg width="123" height="141" viewBox="0 0 123 141" fill="none" xmlns="http://www.w3.org/2000/svg">
<path d="M52.4422 127.811L17.2422 101.541C16.7406 101.167 16.1453 100.939 15.5223 100.883C14.8993 100.826 14.2728 100.943 13.7122 101.221L1.88217 107.111C1.31712 107.39 0.841438 107.822 0.508844 108.357C0.176251 108.893 0 109.511 0 110.141C0 110.771 0.176251 111.389 0.508844 111.924C0.841438 112.46 1.31712 112.892 1.88217 113.171L56.7022 140.451C57.1687 140.681 57.6819 140.801 58.2022 140.801C58.7224 140.801 59.2356 140.681 59.7022 140.451L120.612 110.141L119.702 109.681L55.4022 128.341C54.9013 128.486 54.3736 128.514 53.8602 128.422C53.3468 128.33 52.8615 128.121 52.4422 127.811V127.811Z" fill="#FFC700"/>
<path d="M51.0022 101.281L27.2222 64.3307C26.8826 63.7992 26.4011 63.3732 25.832 63.1011C25.263 62.8289 24.6291 62.7214 24.0022 62.7907L10.8822 64.1507C10.2556 64.2163 9.65976 64.4551 9.16138 64.8404C8.663 65.2257 8.28183 65.7422 8.06064 66.332C7.83945 66.9219 7.78699 67.5617 7.90914 68.1797C8.03128 68.7977 8.32321 69.3694 8.75217 69.8307L50.5122 114.611C50.8712 114.992 51.3131 115.286 51.8037 115.47C52.2944 115.654 52.8208 115.723 53.3422 115.671L121.012 108.671L120.312 107.921L53.5622 102.831C53.0449 102.787 52.5447 102.624 52.1007 102.355C51.6566 102.087 51.2807 101.719 51.0022 101.281Z" fill="#575EFF"/>
<path d="M58.8922 75.9207L49.6222 33.0007C49.4876 32.3905 49.1879 31.829 48.7558 31.3775C48.3237 30.9261 47.7759 30.602 47.1722 30.4407L34.3822 27.0907C33.7724 26.9266 33.1289 26.9366 32.5246 27.1196C31.9202 27.3025 31.3792 27.651 30.9628 28.1257C30.5464 28.6004 30.2714 29.1822 30.1687 29.8052C30.0661 30.4283 30.14 31.0676 30.3822 31.6507L53.7922 88.2407C53.9898 88.7271 54.2978 89.1609 54.6917 89.508C55.0856 89.8551 55.5548 90.1059 56.0622 90.2407L121.892 107.431L121.502 106.491L60.7822 78.2707C60.3067 78.0521 59.8885 77.726 59.5606 77.3182C59.2326 76.9104 59.0038 76.432 58.8922 75.9207V75.9207Z" fill="#FFC700"/>
<path d="M118.412 35.1707L69.4022 0.620747C68.8879 0.256887 68.2821 0.0440032 67.6533 0.00611815C67.0244 -0.0317669 66.3975 0.106855 65.8432 0.406341C65.289 0.705827 64.8294 1.15426 64.5165 1.70103C64.2036 2.2478 64.0497 2.87116 64.0722 3.50075L66.0722 63.3507C66.103 64.2928 66.352 65.2149 66.7997 66.0443C67.2474 66.8738 67.8815 67.588 68.6522 68.1307L117.592 102.631C118.107 102.994 118.713 103.206 119.342 103.243C119.972 103.28 120.598 103.142 121.153 102.843C121.708 102.544 122.168 102.096 122.482 101.55C122.796 101.003 122.952 100.381 122.932 99.7507L120.932 39.8207C120.901 38.9034 120.658 38.0057 120.22 37.1987C119.783 36.3917 119.164 35.6974 118.412 35.1707V35.1707Z" fill="#575EFF"/>
</svg>
